<svg height='300px' width='300px'  fill="#ffffff" xmlns="http://www.w3.org/2000/svg" xmlns:xlink="http://www.w3.org/1999/xlink" version="1.1" x="0px" y="0px" viewBox="0 0 100 100" style="enable-background:new 0 0 100 100;" xml:space="preserve"><style type="text/css">
	.st0{fill:#ffffff;}
	.st1{fill:#ffffff;}
	.st2{fill:none;stroke:#ffffff;stroke-width:5;stroke-miterlimit:10;}
	.st3{fill:none;}
	.st4{fill:none;stroke:#ffffff;stroke-miterlimit:10;}
	.st5{fill:#ffffff;stroke:#ffffff;stroke-width:4;stroke-miterlimit:10;}
	.st6{fill:none;stroke:#ffffff;stroke-width:3;stroke-miterlimit:10;}
	.st7{fill:#ffffff;}
</style><g><path d="M42.9748,12.1918v4.6895c10.3597,0,18.7578,8.3981,18.7578,18.7578h4.6895C66.422,22.6895,55.9243,12.1918,42.9748,12.1918   z"></path><path d="M42.9748,21.5707v4.6895c5.1799,0,9.3789,4.199,9.3789,9.3788h4.6895C57.0431,27.8693,50.7445,21.5707,42.9748,21.5707z"></path><path d="M48.8069,38.2258c0-3.7104-3.0187-6.7291-6.7291-6.7291s-6.729,3.0187-6.729,6.7291v35.9119   c-1.1455,1.4848-1.7708,3.3005-1.7708,5.1706c0,4.6868,3.8131,8.4999,8.4998,8.4999c4.6868,0,8.4999-3.8131,8.4999-8.4999   c0-1.8704-0.6254-3.6858-1.7708-5.1709V38.2258z M42.0778,84.9749c-3.1245,0-5.6666-2.5421-5.6666-5.6666   c0-1.3647,0.5036-2.6884,1.4177-3.7273l0.3531-0.4016V38.2258c0-2.1481,1.7476-3.8958,3.8958-3.8958s3.8958,1.7476,3.8958,3.8958   v2.386h-2.4788c-0.5869,0-1.0625,0.4756-1.0625,1.0625s0.4756,1.0625,1.0625,1.0625h2.4788v2.8782h-3.8954   c-0.5869,0-1.0625,0.4755-1.0625,1.0625c0,0.5869,0.4756,1.0624,1.0625,1.0624h3.8954v2.8779h-2.4788   c-0.5869,0-1.0625,0.4755-1.0625,1.0624s0.4756,1.0625,1.0625,1.0625h2.4788v2.8779h-3.8954c-0.5869,0-1.0625,0.4756-1.0625,1.0625   s0.4756,1.0625,1.0625,1.0625h3.8954v17.4333l0.3531,0.4016c0.9141,1.0389,1.4177,2.3629,1.4177,3.7277   C47.7444,82.4328,45.2023,84.9749,42.0778,84.9749z"></path><path d="M43.4948,76.066V63.7529c0-0.7823-0.6343-1.4166-1.4166-1.4166s-1.4166,0.6343-1.4166,1.4166v12.313   c-1.2498,0.5469-2.1251,1.7911-2.1251,3.2427c0,1.9559,1.5856,3.5416,3.5416,3.5416s3.5416-1.5856,3.5416-3.5416   C45.6197,77.8571,44.7445,76.6131,43.4948,76.066z"></path></g></svg>
